#!OML:ASF F:\VICON\USERDATA\INSTALL\rory3\rory3.ASF
:FULLY-SPECIFIED
:DEGREES
2714
root -0.237169 16.9395 -1.94302 5.36552 -7.32147 -2.14747
lowerback 21.3516 -2.65658 -4.68409
upperback 12.4998 -4.32179 -1.5848
thorax 1.95587 -2.40374 1.75443
lowerneck -7.29789 -8.94317 -19.0208
upperneck -1.98018 -11.5291 29.0423
head 3.83812 -5.38014 11.8387
rclavicle -1.03368e-014 9.54166e-015
rhumerus 63.264 33.3052 -6.32989
rradius 64.8677
rwrist 3.73155
rhand -9.24668 13.7823
rfingers 7.12502
rthumb 16.709 -15.5186
lclavicle -1.03368e-014 9.54166e-015
lhumerus 39.4248 -23.7059 37.676
lradius 34.857
lwrist -2.79878
lhand 2.55657 27.4072
lfingers 7.12502
lthumb 28.0368 55.3325
rfemur -23.9217 3.66876 21.4373
rtibia 33.2873
rfoot -16.8818 3.14079
rtoes -15.1873
lfemur -25.4371 -1.26762 -12.8767
ltibia 40.7269
lfoot -15.965 3.19577
ltoes -19.1334
2715
root -0.281457 16.933 -1.94525 5.50273 -6.98242 -2.43296
lowerback 21.1733 -2.59124 -4.70616
upperback 12.4617 -4.23128 -1.7527
thorax 1.98338 -2.35118 1.56403
lowerneck -7.36978 -9.03375 -19.3144
upperneck -1.93307 -11.6573 29.3493
head 3.94651 -5.4343 11.9932
rclavicle -5.24792e-014 1.11319e-014
rhumerus 63.5428 33.0542 -6.17066
rradius 64.4949
rwrist 3.81512
rhand -9.21448 13.886
rfingers 7.12502
rthumb 16.74 -15.4123
lclavicle -5.24792e-014 1.11319e-014
lhumerus 39.4815 -23.3211 38.374
lradius 35.1144
lwrist -3.05615
lhand 2.57233 27.3388
lfingers 7.12502
lthumb 28.0518 55.2616
rfemur -24.0107 3.53533 21.9247
rtibia 33.2899
rfoot -16.8736 3.00368
rtoes -14.4092
lfemur -25.7762 -1.32941 -12.3651
ltibia 40.981
lfoot -15.9778 3.16486
ltoes -20.4518
2716
root -0.324402 16.9243 -1.94826 5.65198 -6.5834 -2.83778
lowerback 20.9797 -2.54955 -4.56396
upperback 12.4316 -4.14196 -1.9023
thorax 2.01531 -2.29117 1.30136
lowerneck -7.41405 -9.10533 -19.5372
upperneck -1.83564 -11.7732 29.5889
head 4.05046 -5.4828 12.112
rclavicle -1.06549e-013 1.59028e-014
rhumerus 63.7682 32.8355 -6.08129
rradius 64.2693
rwrist 3.60913
rhand -8.94609 13.6481
rfingers 7.12502
rthumb 16.9983 -15.6281
lclavicle -1.06549e-013 1.59028e-014
lhumerus 39.5648 -23.0396 39.05
lradius 35.3589
lwrist -3.14682
lhand 2.71216 27.257
lfingers 7.12502
lthumb 28.1855 55.1579
rfemur -24.1136 3.30923 22.552
rtibia 33.3083
rfoot -16.8442 2.90592
rtoes -13.3901
lfemur -26.1588 -1.38494 -11.724
ltibia 41.2724
lfoot -15.8802 2.95491
ltoes -20.549
2717
root -0.366939 16.913 -1.95309 5.5786 -6.24887 -3.10726
lowerback 21.0824 -2.42627 -4.54342
upperback 12.4433 -3.98378 -2.10434
thorax 1.95117 -2.20032 1.05296
lowerneck -7.5157 -9.22656 -19.5528
upperneck -1.72976 -11.9564 29.6325
head 4.15154 -5.5611 12.101
rclavicle 3.81667e-014 1.74931e-014
rhumerus 63.8647 32.5627 -6.20054
rradius 63.7727
rwrist 3.86431
rhand -8.93393 13.4175
rfingers 7.12502
rthumb 17.01 -15.8577
lclavicle 3.81667e-014 1.74931e-014
lhumerus 39.8072 -22.8821 39.6225
lradius 35.6067
lwrist -3.00214
lhand 2.87601 27.398
lfingers 7.12502
lthumb 28.3421 55.273
rfemur -24.0096 3.12197 23.0355
rtibia 33.3448
rfoot -17.0533 2.83782
rtoes -13.3565
lfemur -26.297 -1.3907 -11.2469
ltibia 41.5733
lfoot -15.8828 2.64942
ltoes -20.6564
2718
root -0.410939 16.9027 -1.95876 5.46473 -5.87996 -3.24141
lowerback 21.3051 -2.30076 -4.66092
upperback 12.4421 -3.85336 -2.34135
thorax 1.82524 -2.12771 0.855011
lowerneck -7.691 -9.34583 -19.3989
upperneck -1.57068 -12.1345 29.4679
head 4.2463 -5.6305 11.9738
rclavicle 4.13472e-014 2.22639e-014
rhumerus 64.0471 32.3787 -6.21052
rradius 63.2481
rwrist 4.03513
rhand -9.16391 13.063
rfingers 7.12502
rthumb 16.7887 -16.2312
lclavicle 4.13472e-014 2.22639e-014
lhumerus 40.025 -22.6805 40.2407
lradius 35.8149
lwrist -2.74617
lhand 3.08497 27.5514
lfingers 7.12502
lthumb 28.5417 55.3931
rfemur -23.9166 2.92771 23.3716
rtibia 33.4059
rfoot -17.4062 2.70019
rtoes -13.6481
lfemur -26.3881 -1.45501 -10.9185
ltibia 41.8323
lfoot -15.8742 2.23151
ltoes -19.7419
2719
root -0.457941 16.8943 -1.96409 5.44858 -5.58346 -3.34281
lowerback 21.4539 -2.13007 -4.90483
upperback 12.3457 -3.68801 -2.58552
thorax 1.63883 -2.0414 0.712672
lowerneck -7.5904 -9.3905 -19.311
upperneck -1.49335 -12.2397 29.4841
head 4.27259 -5.68661 11.9514
rclavicle 5.08889e-014 -1.59028e-015
rhumerus 64.2295 32.4377 -6.17618
rradius 62.8105
rwrist 4.12434
rhand -9.19854 12.6756
rfingers 7.12502
rthumb 16.7553 -16.6214
lclavicle 5.08889e-014 -1.59028e-015
lhumerus 40.1254 -22.6786 40.7393
lradius 36.1504
lwrist -2.15664
lhand 2.91365 27.5221
lfingers 7.12502
lthumb 28.378 55.3912
rfemur -23.9456 2.79304 23.6712
rtibia 33.5019
rfoot -17.5072 2.50402
rtoes -14.1787
lfemur -26.551 -1.46121 -10.6266
ltibia 42.051
lfoot -15.8567 1.92184
ltoes -18.9121
2720
root -0.502425 16.886 -1.96931 5.42963 -5.27239 -3.49958
lowerback 21.5712 -1.96121 -5.14064
upperback 12.2842 -3.52101 -2.76305
thorax 1.51126 -1.95821 0.632106
lowerneck -7.41796 -9.42531 -19.3463
upperneck -1.51463 -12.3175 29.5877
head 4.2689 -5.7379 11.9929
rclavicle 7.95139e-015 7.95139e-015
rhumerus 64.4564 32.3345 -6.2774
rradius 62.2075
rwrist 4.55805
rhand -9.13718 12.6748
rfingers 7.12502
rthumb 16.8144 -16.6172
lclavicle 7.95139e-015 7.95139e-015
lhumerus 40.2027 -22.6534 41.3468
lradius 36.4711
lwrist -1.62538
lhand 2.37354 27.3797
lfingers 7.12502
lthumb 27.8618 55.3335
rfemur -23.9756 2.59265 24.0266
rtibia 33.6329
rfoot -17.5294 2.39347
rtoes -14.6373
lfemur -26.704 -1.48492 -10.283
ltibia 42.2394
lfoot -15.859 1.69162
ltoes -18.9276
2721
root -0.545708 16.8758 -1.97553 5.40972 -4.94261 -3.72394
lowerback 21.6645 -1.79709 -5.21291
upperback 12.2717 -3.32866 -2.92616
thorax 1.43764 -1.85638 0.467079
lowerneck -7.24883 -9.46892 -19.4517
upperneck -1.64267 -12.3822 29.7249
head 4.24121 -5.78643 12.0617
rclavicle -2.38542e-014 -5.24792e-014
rhumerus 64.6701 32.1211 -6.36132
rradius 61.521
rwrist 4.93768
rhand -9.19317 12.6902
rfingers 7.12502
rthumb 16.7605 -16.6063
lclavicle -2.38542e-014 -5.24792e-014
lhumerus 40.4615 -22.7308 41.8225
lradius 36.801
lwrist -1.16915
lhand 2.08445 27.7228
lfingers 7.12502
lthumb 27.5854 55.7211
rfemur -24.0121 2.37808 24.4513
rtibia 33.8166
rfoot -17.4542 2.41457
rtoes -13.6737
lfemur -26.866 -1.47092 -9.86983
ltibia 42.4087
lfoot -15.9479 1.56365
ltoes -19.8575
2722
root -0.590316 16.8668 -1.98264 5.32055 -4.64928 -3.91186
lowerback 21.838 -1.58005 -5.28583
upperback 12.281 -3.07485 -3.14286
thorax 1.3444 -1.72185 0.234773
lowerneck -7.10321 -9.56945 -19.4665
upperneck -1.7749 -12.5355 29.8912
head 4.23683 -5.87748 12.1097
rclavicle -7.95139e-015 -9.54166e-015
rhumerus 64.6338 31.9882 -6.60124
rradius 60.8694
rwrist 5.32571
rhand -9.21047 12.7633
rfingers 7.12502
rthumb 16.7438 -16.5346
lclavicle -7.95139e-015 -9.54166e-015
lhumerus 40.7595 -22.6937 42.4854
lradius 37.0661
lwrist -1.11659
lhand 2.37634 27.8144
lfingers 7.12502
lthumb 27.8645 55.7678
rfemur -23.9884 2.20035 24.8409
rtibia 34.0434
rfoot -17.2612 2.42402
rtoes -12.495
lfemur -26.9683 -1.43673 -9.50212
ltibia 42.5825
lfoot -16.0174 1.45478
ltoes -20.3844
2723
root -0.631624 16.8547 -1.98974 5.26954 -4.29152 -3.93367
lowerback 21.9834 -1.37908 -5.48922
upperback 12.2823 -2.86317 -3.36585
thorax 1.26791 -1.61441 0.0742238
lowerneck -7.00704 -9.69433 -19.5596
upperneck -1.89226 -12.7129 30.0593
head 4.25808 -5.97602 12.1674
rclavicle 3.18055e-015 -3.97569e-014
rhumerus 64.5484 31.8679 -6.94108
rradius 60.2105
rwrist 5.8535
rhand -8.92477 13.2759
rfingers 7.12502
rthumb 17.0189 -15.9985
lclavicle 3.18055e-015 -3.97569e-014
lhumerus 41.0448 -22.6345 43.2475
lradius 37.2253
lwrist -0.985332
lhand 2.29772 27.5237
lfingers 7.12502
lthumb 27.7893 55.4892
rfemur -24.0773 1.97061 25.0367
rtibia 34.3077
rfoot -17.3362 2.2648
rtoes -12.6381
lfemur -27.152 -1.45872 -9.32467
ltibia 42.7593
lfoot -16.0578 1.1914
ltoes -20.313
2724
root -0.670449 16.8364 -1.9966 5.29529 -3.89509 -4.06526
lowerback 22.0708 -1.20469 -5.51357
upperback 12.262 -2.65099 -3.57945
thorax 1.18582 -1.49759 -0.178583
lowerneck -6.76918 -9.80525 -19.6758
upperneck -2.06407 -12.8854 30.3086
head 4.24849 -6.08523 12.2679
rclavicle 1.27222e-014 2.70347e-014
rhumerus 64.394 31.7757 -7.32849
rradius 59.5835
rwrist 6.36494
rhand -8.73918 13.5101
rfingers 7.12502
rthumb 17.1975 -15.7488
lclavicle 1.27222e-014 2.70347e-014
lhumerus 41.4322 -22.7176 43.917
lradius 37.3229
lwrist -0.825339
lhand 2.01067 27.4711
lfingers 7.12502
lthumb 27.5148 55.4806
rfemur -24.2761 1.6953 25.3514
rtibia 34.5937
rfoot -17.5806 2.14084
rtoes -13.1194
lfemur -27.4229 -1.41277 -9.03126
ltibia 42.9362
lfoot -16.0553 0.891186
ltoes -20.351
